HIERARCHY
ROOT Hips
{
	OFFSET -131.695496 91.669037 -190.067505
	CHANNELS 6 Xposition Yposition Zposition Zrotation Yrotation Xrotation 
	JOINT LeftUpLeg
	{
		OFFSET 0.103456 1.857829 10.548507
		CHANNELS 3 Zrotation Yrotation Xrotation
		JOINT LeftLeg
		{
			OFFSET 43.500000 -0.000031 0.000008
			CHANNELS 3 Zrotation Yrotation Xrotation
			JOINT LeftFoot
			{
				OFFSET 42.372200 0.000015 -0.000002
				CHANNELS 3 Zrotation Yrotation Xrotation
				JOINT LeftToe
				{
					OFFSET 17.299992 -0.000004 0.000000
					CHANNELS 3 Zrotation Yrotation Xrotation
					End Site
					{
						OFFSET 0.000000 0.000000 0.000000
					}
				}
			}
		}
	}
	JOINT RightUpLeg
	{
		OFFSET 0.103460 1.857824 -10.548508
		CHANNELS 3 Zrotation Yrotation Xrotation
		JOINT RightLeg
		{
			OFFSET 43.500042 -0.000019 0.000004
			CHANNELS 3 Zrotation Yrotation Xrotation
			JOINT RightFoot
			{
				OFFSET 42.372265 -0.000019 0.000016
				CHANNELS 3 Zrotation Yrotation Xrotation
				JOINT RightToe
				{
					OFFSET 17.299999 -0.000001 -0.000006
					CHANNELS 3 Zrotation Yrotation Xrotation
					End Site
					{
						OFFSET 0.000000 0.000000 0.000000
					}
				}
			}
		}
	}
	JOINT Spine
	{
		OFFSET 6.901965 -2.603734 0.000001
		CHANNELS 3 Zrotation Yrotation Xrotation
		JOINT Spine1
		{
			OFFSET 12.588102 0.000006 -0.000006
			CHANNELS 3 Zrotation Yrotation Xrotation
			JOINT Spine2
			{
				OFFSET 12.343201 -0.000002 0.000010
				CHANNELS 3 Zrotation Yrotation Xrotation
				JOINT Neck
				{
					OFFSET 25.832899 -0.000004 -0.000009
					CHANNELS 3 Zrotation Yrotation Xrotation
					JOINT Head
					{
						OFFSET 11.766603 0.000001 0.000007
						CHANNELS 3 Zrotation Yrotation Xrotation
						End Site
						{
							OFFSET 0.000000 0.000000 0.000000
						}
					}
				}
				JOINT LeftShoulder
				{
					OFFSET 19.745899 -1.480371 6.000098
					CHANNELS 3 Zrotation Yrotation Xrotation
					JOINT LeftArm
					{
						OFFSET 11.284129 -0.000011 -0.000015
						CHANNELS 3 Zrotation Yrotation Xrotation
						JOINT LeftForeArm
						{
							OFFSET 33.000046 0.000011 0.000030
							CHANNELS 3 Zrotation Yrotation Xrotation
							JOINT LeftHand
							{
								OFFSET 25.200010 0.000012 -0.000000
								CHANNELS 3 Zrotation Yrotation Xrotation
								End Site
								{
									OFFSET 0.000000 0.000000 0.000000
								}
							}
						}
					}
				}
				JOINT RightShoulder
				{
					OFFSET 19.746092 -1.480375 -6.000075
					CHANNELS 3 Zrotation Yrotation Xrotation
					JOINT RightArm
					{
						OFFSET 11.284135 -0.000010 -0.000014
						CHANNELS 3 Zrotation Yrotation Xrotation
						JOINT RightForeArm
						{
							OFFSET 33.000092 0.000016 0.000013
							CHANNELS 3 Zrotation Yrotation Xrotation
							JOINT RightHand
							{
								OFFSET 25.199780 0.000135 0.000426
								CHANNELS 3 Zrotation Yrotation Xrotation
								End Site
								{
									OFFSET 0.000000 0.000000 0.000000
								}
							}
						}
					}
				}
			}
		}
	}
}
MOTION
Frames: 9
Frame Time: 0.033333
-265.726593 89.264923 -441.239410 88.406724 0.476363 106.797999 -175.926234 5.104201 -169.944560 -15.271208 -4.725746 -2.720103 83.718756 4.181294 10.429923 21.454551 0.003081 -0.000000 147.911175 5.903006 178.890687 -33.188217 0.443655 4.483181 67.622623 -2.769301 1.585042 21.454555 -0.003109 -0.000019 8.354979 0.146922 -1.478587 6.692320 0.378756 -2.946203 6.374656 0.361099 -2.948428 -18.358502 -8.017298 -5.857160 -11.735395 14.205695 -12.978756 130.022404 -82.555950 48.826673 -58.366603 45.766478 6.302114 -81.724074 -8.281890 2.520526 -1.936926 0.069711 51.293805 -154.123014 72.899490 27.967856 14.047167 -50.210524 -55.409998 -33.100784 14.059869 -1.259090 3.555411 1.249988 -15.809427 
-265.399994 88.653526 -437.436310 88.418404 1.189536 106.945394 -172.708204 4.248308 -168.491614 -15.171561 -5.308752 -3.302771 85.934387 4.352700 10.353058 21.454548 0.003086 -0.000000 150.819483 5.155703 172.064937 -19.373669 3.052585 4.874505 65.815983 -2.558014 3.078496 21.454558 -0.003109 -0.000017 8.527299 0.230531 -1.520759 7.034551 0.552763 -3.024733 6.716916 0.534640 -3.028012 -18.315081 -7.054462 -6.146069 -11.883534 13.815869 -12.833259 124.055797 -83.206293 54.769877 -58.917464 42.710860 3.146772 -89.512887 -5.486621 2.667245 -3.864474 -0.383332 52.310954 -152.824991 73.137611 29.293189 16.658541 -48.943602 -57.354499 -35.210223 13.906402 -1.296232 2.430669 1.103646 -15.783049 
-264.910095 87.776672 -433.615814 88.581195 1.984745 105.982406 -170.081478 4.163300 -168.896931 -16.867121 -5.320339 -3.663806 88.516656 4.288562 10.016472 21.454551 0.003091 0.000002 151.764426 4.345501 169.991223 -13.614999 5.808047 6.492404 64.916413 -2.895311 5.444887 21.454560 -0.003106 -0.000017 8.705553 0.258627 -1.479153 7.390556 0.610927 -2.938811 7.072878 0.593316 -2.942435 -16.738253 -6.185332 -6.199317 -12.759621 13.303400 -12.482849 125.949002 -83.779244 52.822255 -58.573428 40.273404 0.736579 -94.969266 -3.991211 2.805013 -6.016100 -1.343969 51.490108 -153.024911 73.672189 29.074418 17.703128 -48.310082 -58.007997 -36.597267 13.805331 -1.322266 1.998586 1.242588 -17.333536 
-264.281006 86.608582 -429.650696 88.628979 2.699890 103.881310 -168.125953 4.537004 -171.629595 -20.148899 -4.907458 -3.427633 90.655803 3.851317 9.500148 21.454551 0.003086 -0.000001 149.826169 1.759403 179.032126 -19.471278 4.279437 3.905275 66.414553 -0.711523 6.257362 21.454560 -0.003117 -0.000020 8.770260 0.279553 -1.272409 7.520713 0.640995 -2.524001 7.202940 0.625877 -2.527819 -13.523001 -5.260213 -6.182933 -14.358714 12.468842 -11.989688 134.419612 -83.967299 44.297779 -57.166791 39.245249 -0.917662 -98.275016 -3.630184 2.926793 -8.043619 -2.328954 49.579206 -153.559113 74.120598 28.515869 17.688716 -47.867858 -57.694922 -37.876059 13.825214 -1.354762 0.697643 1.302603 -19.378715 
-263.531891 85.526939 -425.482391 88.663150 3.401918 101.990400 -166.544778 4.997895 -174.628034 -24.049468 -4.346645 -2.922588 90.308242 3.407892 8.572749 21.454553 0.003099 -0.000001 148.102339 -0.523495 -173.544903 -28.547249 1.471785 2.597320 68.943035 -0.198711 5.147731 21.454560 -0.003111 -0.000017 8.784234 0.358005 -1.088384 7.548397 0.786057 -2.151193 7.230513 0.773178 -2.155881 -9.325255 -4.039429 -6.191438 -16.463399 11.182704 -11.342273 144.768482 -83.784571 33.900216 -55.142354 40.141824 -2.706236 -99.710858 -3.427406 2.976366 -9.245569 -3.581361 48.269773 -153.367281 73.946510 28.716714 16.764329 -47.574996 -55.903080 -39.901186 14.365056 -1.441642 -0.393043 0.506692 -20.345262 
-262.711487 84.452560 -421.249695 88.459938 3.987292 101.163400 -165.778732 5.106907 -177.168017 -29.099297 -3.579092 -2.180630 88.608242 2.936232 7.910947 21.454551 0.003091 -0.000001 147.634279 -2.133404 -171.009263 -36.632220 0.535905 3.442255 71.360683 -1.671068 2.723477 21.454560 -0.003100 -0.000016 8.732335 0.601337 -1.056281 7.440811 1.269122 -2.071887 7.122844 1.256748 -2.079499 -4.078500 -2.977165 -6.225331 -18.795639 9.850112 -10.784098 156.261437 -82.608426 22.382887 -52.348568 42.119403 -3.946393 -99.487074 -3.359340 2.961674 -8.671539 -4.141060 48.754768 -153.464187 73.205592 28.636056 16.106556 -47.877850 -52.383572 -42.374080 15.936740 -1.611427 -0.887357 0.266189 -19.805076 
-262.155609 83.712563 -417.148987 86.922551 4.753221 101.743208 -167.205517 2.777205 -179.926116 -37.414072 -2.916174 -0.724783 83.646991 2.019152 6.656225 21.454551 0.003085 -0.000001 148.877346 -3.929312 -168.806882 -40.558797 0.225684 2.742497 74.963826 -3.484566 -5.124547 21.454558 -0.003114 -0.000020 8.662535 1.195636 -1.050284 7.292185 2.454820 -2.023738 6.973985 2.442703 -2.038525 2.167543 -1.287381 -6.522159 -21.094276 8.545286 -10.439860 163.561570 -80.595645 15.094086 -49.485369 44.985286 -4.893026 -97.497768 -3.656997 2.894118 -8.282386 -3.723892 50.273177 -154.573096 71.277648 27.544247 15.972363 -48.694533 -44.907169 -45.713763 17.462560 -1.809091 -1.465578 0.549675 -18.888501 
-261.898804 82.672157 -413.108490 85.044345 5.786485 103.448693 -171.092004 -1.428605 178.126184 -50.066987 -2.861092 1.421011 76.669536 0.370574 4.672888 21.454543 0.003094 -0.000003 149.091664 -6.162008 -169.933290 -46.025640 0.630735 5.390890 79.950691 -4.757142 -3.885138 21.454557 -0.003107 -0.000017 8.631044 1.882170 -1.069657 7.219436 3.827135 -2.021144 6.900786 3.815002 -2.044228 8.348447 0.664191 -7.064740 -21.405758 7.987272 -10.606744 166.128915 -78.562099 12.570117 -46.631409 48.681992 -6.690678 -93.407843 -4.282333 2.755923 -7.744966 -2.498065 53.059556 -157.154989 68.206488 24.948405 15.578649 -50.547286 -33.129751 -49.306753 19.011956 -2.025106 -2.389620 0.828861 -17.890058 
-261.424713 81.605614 -409.030212 84.099498 7.145557 104.750199 -176.193664 -4.913889 175.965440 -65.223375 -0.816443 4.333481 71.454687 -3.902022 -2.289964 21.454555 0.003084 -0.000003 150.069706 -7.686798 -172.175012 -51.230049 2.129364 7.544467 84.708928 -5.767914 -2.482927 21.454562 -0.003114 -0.000017 8.769059 2.428630 -0.971626 7.493751 4.914820 -1.785712 7.174562 4.904085 -1.815411 13.514894 1.528338 -7.561451 -19.248120 8.673818 -11.255023 165.768213 -77.245826 12.987715 -44.342213 53.505093 -8.217934 -87.227670 -7.159914 2.683295 -8.599207 -2.941101 54.881099 -158.039212 65.310392 24.087835 10.727770 -54.113301 -18.799268 -52.116495 20.412797 -2.213721 -2.857354 5.056170 -13.265641 
